<svg width="168" height="123" viewBox="0 0 168 123" fill="none" xmlns="http://www.w3.org/2000/svg">
<path d="M84 68.1742C84 49.7755 69.0849 34.8604 50.6863 34.8604C32.2876 34.8605 16.2098 36.1939 16.2098 54.5926C16.2098 72.9912 32.2876 101.488 50.6863 101.488C69.0849 101.488 84 86.5728 84 68.1742Z" fill="#DAF6EA"/>
<mask id="mask0_2159_11154" style="mask-type:alpha" maskUnits="userSpaceOnUse" x="77" y="53" width="37" height="34">
<path d="M108.672 53.7446C111.498 58.6397 113.125 64.1341 113.421 69.7787C113.717 75.4232 112.673 81.0577 110.374 86.2213L77.6531 71.6532L108.672 53.7446Z" fill="#0A633E"/>
</mask>
<g mask="url(#mask0_2159_11154)">
<circle cx="77.7253" cy="71.6531" r="18.078" transform="rotate(-45 77.7253 71.6531)" stroke="#0A633E" stroke-width="3"/>
<circle cx="78.3401" cy="71.6531" r="24.2606" transform="rotate(-45 78.3401 71.6531)" stroke="#0A633E" stroke-width="3"/>
</g>
<path d="M45.5768 29.4841C43.8906 28.0711 45.3772 24.8683 43.0474 21.4802L38.113 22.147L32.7278 20.1911L30.6475 33.9443C30.6475 33.9443 31.2829 34.1686 35.4568 36.7827C37.4457 38.0284 39.3569 38.0405 40.6871 38.1496C41.3018 38.2 57.2852 47.4102 57.2852 47.4102L63.9936 37.8499C63.9935 37.8499 46.0132 29.8498 45.5768 29.4841Z" fill="url(#paint0_radial_2159_11154)"/>
<path d="M43.0475 21.4802C40.4358 17.4232 39.6362 17.4886 40.0286 14.8122C40.4143 12.1809 37.4713 11.7208 36.8028 14.7442C36.0615 18.0975 37.4122 21.3495 38.1131 22.147C38.1131 22.147 35.9096 26.4007 38.6361 29.9177C41.6072 33.7502 43.5142 34.0542 43.5142 34.0542C43.5142 34.0542 44.9148 24.3809 43.0475 21.4802Z" fill="#E0BB95"/>
<path d="M35.0998 25.7157L31.8 24.1862C30.5161 23.5313 29.7965 22.1063 30.2575 21.0364C30.7186 19.9665 32.1488 19.7425 33.3894 20.498L36.4592 22.1513C37.5639 22.6892 37.9841 23.9851 37.557 25.0219C37.2851 25.6816 36.0955 26.2236 35.0998 25.7157Z" fill="#E0BB95"/>
<path d="M33.8171 28.9706L29.9582 27.3939C28.6841 26.878 27.9563 25.5883 28.3954 24.5385C28.8345 23.4888 30.2399 23.1586 31.4737 23.771L35.1888 25.6915C36.1507 26.1689 36.6041 27.2442 36.2408 28.1128C35.8774 28.9814 34.8105 29.3728 33.8171 28.9706Z" fill="#E0BB95"/>
<path d="M33.3075 32.0389L30.1732 31.2928C28.981 30.9781 27.8481 29.8146 28.3901 28.4842C28.8114 27.4501 29.5521 27.1618 31.3969 27.8183L35.1213 29.0834C35.3951 29.1466 35.8965 30.0935 35.5951 30.9492C35.2937 31.805 34.2856 32.297 33.3075 32.0389Z" fill="#E0BB95"/>
<path d="M31.987 34.915L30.7197 34.6541C29.5646 34.4064 28.7636 33.4262 28.9777 32.4749C29.1917 31.5236 30.3258 31.023 31.4645 31.3438L33.685 32.0511C34.6302 32.3173 35.2416 33.2781 35.0353 34.0113C34.7351 35.0786 33.9462 35.2206 31.987 34.915Z" fill="#E0BB95"/>
<path d="M23.3045 40.9593C20.9822 39.0132 23.0297 34.602 19.8208 29.9356L13.0247 30.854L6.02364 28.2106L2.74243 47.1023C2.74243 47.1023 3.53094 46.8557 9.43821 50.2573C12.2396 51.8704 15.8491 51.8106 17.6813 51.9608C18.5279 52.0303 23.343 54.7722 27.6467 57.295C31.8771 54.7822 33.4331 51.3236 34.9356 46.5025C30.1594 44.3398 23.9056 41.4629 23.3045 40.9593Z" fill="url(#paint1_radial_2159_11154)"/>
<path d="M19.8207 29.9355C16.2237 24.3479 15.5617 24.2878 15.6628 20.7518C15.7642 17.2055 11.9525 16.9928 11.22 20.6583C10.199 25.2767 12.4628 29.807 13.4282 30.9053C13.4282 30.9053 9.9898 36.7126 13.7451 41.5566C17.837 46.835 20.4636 47.2537 20.4636 47.2537C20.4636 47.2537 22.3926 33.9307 19.8207 29.9355Z" fill="#BF8F68"/>
<path d="M9.03792 35.4611L4.68356 33.4428C2.9893 32.5786 2.03977 30.6982 2.64812 29.2863C3.25651 27.8745 5.14374 27.5789 6.7808 28.5758L10.8317 30.7575C12.2894 31.4672 12.844 33.1773 12.2803 34.5455C11.9217 35.4161 10.3518 36.1313 9.03792 35.4611Z" fill="#BF8F68"/>
<path d="M7.34517 39.7563L2.25298 37.6756C0.571674 36.995 -0.388773 35.2931 0.190688 33.9078C0.770148 32.5226 2.62471 32.0869 4.25279 32.8949L9.15516 35.4292C10.4245 36.0591 11.0229 37.4782 10.5434 38.6244C10.064 39.7705 8.65598 40.287 7.34517 39.7563Z" fill="#BF8F68"/>
<path d="M6.67285 43.8051L2.53684 42.8207C0.963621 42.4054 -0.531371 40.87 0.183892 39.1145C0.739923 37.7498 1.71732 37.3694 4.15168 38.2357L9.06639 39.9052C9.4278 39.9886 10.0894 41.2381 9.6917 42.3674C9.29392 43.4965 7.96352 44.1458 6.67285 43.8051Z" fill="#BF8F68"/>
<path d="M4.93047 47.6005L3.2581 47.2561C1.73381 46.9292 0.676876 45.6358 0.959325 44.3805C1.24178 43.1251 2.73833 42.4646 4.24094 42.8878L7.17107 43.8211C8.41839 44.1724 9.22521 45.4402 8.95296 46.4079C8.55679 47.8163 7.51571 48.0037 4.93047 47.6005Z" fill="#BF8F68"/>
<path d="M49.0447 84.1223C49.0447 84.1223 28.7216 75.6169 28.2626 75.2323C26.4893 73.7463 28.0527 70.3778 25.6024 66.8144L20.4025 67.5298L16.0775 65.5632L13.9738 80.0147C13.9738 80.0147 14.6421 80.2505 19.0319 82.9999C21.1237 84.3101 22.9114 84.722 24.3105 84.8366C24.6093 84.8611 33.0789 88.9282 33.0789 88.9282L45.0143 90.2156L49.0447 84.1223Z" fill="url(#paint2_linear_2159_11154)"/>
<path d="M52.7715 48.2787L78.6859 62.5735C78.838 61.2926 78.9253 59.9919 78.9253 58.6702C78.9253 52.4452 77.1884 46.6248 74.1726 41.6633L55.2218 33.9268L52.7715 48.2787Z" fill="#E8D441"/>
<path d="M78.6346 62.9752L27.648 43.1528L25.7422 61.6638L66.7741 84.1511C73.1349 78.9809 77.5162 71.491 78.6346 62.9752Z" fill="white"/>
<path d="M33.079 88.9282C37.0366 90.605 41.39 91.5339 45.9613 91.5339C51.0361 91.5339 55.8415 90.3882 60.1356 88.3459L34.921 78.1393L33.079 88.9282Z" fill="#FF7551"/>
<path d="M25.5921 66.8285C22.8453 62.5617 22.1232 62.6453 22.417 59.8156C22.692 57.1674 19.7274 56.5644 19.0244 59.7442C18.2448 63.2709 19.6653 66.6912 20.4024 67.5298C20.4024 67.5298 18.085 72.0035 20.9526 75.7025C24.0773 79.7332 26.0829 80.0529 26.0829 80.0529C26.0829 80.0529 29.1052 71.87 25.5921 66.8285Z" fill="#FAD8B4"/>
<path d="M17.5286 70.6699L13.9888 69.2192C12.6086 68.5919 11.7847 67.1288 12.2181 65.9829C12.6515 64.837 14.1435 64.5339 15.4829 65.2688L18.7869 66.8606C19.9732 67.3734 20.4765 68.715 20.0771 69.8246C19.823 70.5306 18.5989 71.1563 17.5286 70.6699Z" fill="#FAD8B4"/>
<path d="M16.3359 74.1505L12.2065 72.6767C10.8432 72.195 10.0171 70.8745 10.4284 69.7507C10.8397 68.627 12.3006 68.2135 13.626 68.7984L17.6208 70.6403C18.6542 71.0963 19.1819 72.2046 18.8415 73.1344C18.5012 74.0642 17.3988 74.526 16.3359 74.1505Z" fill="#FAD8B4"/>
<path d="M15.9469 77.3983L12.6182 76.7629C11.3507 76.4887 10.1049 75.3199 10.611 73.8965C11.0044 72.79 11.7689 72.4521 13.7384 73.0545L17.7117 74.2073C18.0025 74.2606 18.5744 75.2318 18.2985 76.1452C18.0225 77.0585 16.9868 77.6232 15.9469 77.3983Z" fill="#FAD8B4"/>
<path d="M14.5109 80.4785L13.195 80.1318C11.9963 79.8054 11.2116 78.7302 11.4912 77.7434C11.7709 76.7567 12.9908 76.296 14.168 76.6981L16.4591 77.5681C17.4364 77.9019 18.0231 78.9459 17.7641 79.7041C17.3873 80.8078 16.5506 80.9117 14.5109 80.4785Z" fill="#FAD8B4"/>
<circle cx="69" cy="71.9999" r="18" fill="#0A633E"/>
<path d="M69.395 60.3384C70.1932 59.5948 71.5 60.157 71.5 61.2441V70.6468C69.3968 71.9744 68 74.3179 68 76.9875C68 77.8688 68.1522 78.7146 68.4318 79.5L64.4583 75.8017C64.134 75.4998 63.7062 75.3318 63.2617 75.3318H60.25C58.4551 75.3318 57 73.8865 57 72.1037V68.6351C57 66.8523 58.4551 65.407 60.25 65.407H63.2612C63.7059 65.407 64.1339 65.2388 64.4583 64.9367L69.395 60.3384ZM71.7962 73.1982C72.111 74.2885 71.4566 75.4219 70.355 75.6944L69.3315 75.9477C69.2779 76.2902 69.25 76.6417 69.25 77C69.25 77.3749 69.2805 77.7423 69.3391 78.0998L70.3147 78.3348C71.4272 78.6027 72.0885 79.7477 71.7646 80.8452L71.4408 81.9427C71.9588 82.4033 72.5501 82.7773 73.194 83.0433L74.0368 82.1571C74.8253 81.3278 76.1476 81.328 76.9359 82.1576L77.7856 83.0517C78.4282 82.7889 79.0189 82.4187 79.5372 81.9622L79.2023 80.8024C78.8876 79.7122 79.5419 78.5788 80.6435 78.3062L81.6685 78.0526C81.7221 77.71 81.75 77.3584 81.75 77C81.75 76.6255 81.7195 76.2584 81.6611 75.9012L80.6839 75.6659C79.5713 75.398 78.91 74.2529 79.2339 73.1554L79.5582 72.0564C79.0402 71.5961 78.449 71.2223 77.8053 70.9565L76.9617 71.8436C76.1732 72.6728 74.8509 72.6726 74.0626 71.8431L73.213 70.949C72.5703 71.2119 71.9797 71.5823 71.4615 72.039L71.7962 73.1982ZM75.5 78.5C74.6716 78.5 74 77.8285 74 77C74 76.1716 74.6716 75.5 75.5 75.5C76.3284 75.5 77 76.1716 77 77C77 77.8285 76.3284 78.5 75.5 78.5Z" fill="#EDEDED"/>
<defs>
<radialGradient id="paint0_radial_2159_11154" cx="0" cy="0" r="1" gradientUnits="userSpaceOnUse" gradientTransform="translate(28.2993 27.8395) rotate(3.10707) scale(11.9048 11.8688)">
<stop stop-color="#9B643D"/>
<stop offset="0.440581" stop-color="#BF916B"/>
<stop offset="0.799088" stop-color="#D7B089"/>
<stop offset="1" stop-color="#E0BB95"/>
</radialGradient>
<radialGradient id="paint1_radial_2159_11154" cx="0" cy="0" r="1" gradientUnits="userSpaceOnUse" gradientTransform="translate(6.28578 38.5901) rotate(3.10708) scale(9.76935 9.73981)">
<stop stop-color="#9B643D"/>
<stop offset="0.3666" stop-color="#AF7C55"/>
<stop offset="0.7106" stop-color="#BB8A63"/>
<stop offset="1" stop-color="#BF8F68"/>
</radialGradient>
<linearGradient id="paint2_linear_2159_11154" x1="13.1511" y1="68.5956" x2="19.9031" y2="73.528" gradientUnits="userSpaceOnUse">
<stop stop-color="#E0AD95"/>
<stop offset="1" stop-color="#FAD8B4"/>
</linearGradient>
</defs>
</svg>
